<?xml version="1.0" encoding="UTF-8"?>
<!DOCTYPE svg PUBLIC "-//W3C//DTD SVG 1.0//EN" "http://www.w3.org/TR/2001/REC-SVG-20010904/DTD/svg10.dtd">
<!-- Creator: CorelDRAW X7 -->
<svg xmlns="http://www.w3.org/2000/svg" xml:space="preserve" width="3in" height="1.133in" version="1.0" style="shape-rendering:geometricPrecision; text-rendering:geometricPrecision; image-rendering:optimizeQuality; fill-rule:evenodd; clip-rule:evenodd"
viewBox="0 0 3000 1133"
 xmlns:xlink="http://www.w3.org/1999/xlink">
 <defs>
  <style type="text/css">
   <![CDATA[
    .fil0 {fill:black}
   ]]>
  </style>
 </defs>
 <g id="Layer_x0020_1">
  <metadata id="CorelCorpID_0Corel-Layer"/>
  <g id="_329229272">
   <path class="fil0" d="M895 422c0,0 0,0 0,0l-175 0c-5,0 -9,-4 -9,-9l0 -263c0,-5 4,-9 9,-9l0 0c5,0 10,4 10,9l-1 254 166 0c5,0 9,4 9,9 0,5 -4,9 -9,9z"/>
   <path class="fil0" d="M389 423c0,0 0,0 0,0l-348 0c-5,0 -9,-4 -9,-10 0,-5 4,-9 9,-9 0,0 0,0 0,0l339 1 0 -344c0,-5 4,-10 9,-10l0 0c5,0 9,5 9,10l1 353c0,2 -1,5 -3,6 -2,2 -4,3 -7,3z"/>
   <path class="fil0" d="M721 124c-5,0 -10,-4 -10,-9l0 -66 -300 -1c-5,0 -9,-4 -9,-9 0,-5 4,-9 9,-9l0 0 310 0c5,0 9,4 9,9l0 76c0,5 -4,9 -9,9 0,0 0,0 0,0z"/>
   <path class="fil0" d="M181 740c0,0 0,0 0,0l-159 -1c-5,0 -10,-4 -10,-9l1 -293c0,-5 4,-9 9,-9l0 0c5,0 9,4 9,9l0 284 150 0c5,0 9,4 9,9 0,6 -4,10 -9,10z"/>
   <path class="fil0" d="M389 1095c-5,0 -9,-4 -9,-9l0 -347 -166 0c-5,0 -9,-4 -9,-9 0,-5 4,-9 9,-9l175 0c5,0 9,4 9,9l0 356c0,5 -4,9 -9,9z"/>
   <path class="fil0" d="M414 1113c-5,0 -9,-4 -9,-9 0,-5 4,-10 9,-10l285 0c0,0 0,0 0,0 5,0 10,4 10,9 0,5 -5,9 -10,9l-285 1c0,0 0,0 0,0z"/>
   <path class="fil0" d="M722 1092c0,0 0,0 0,0 -5,0 -9,-4 -9,-9l0 -354c0,-6 4,-10 9,-10l343 0 0 0c5,0 9,4 9,9 0,5 -4,10 -9,10l-334 0 0 345c0,5 -4,9 -9,9z"/>
   <path class="fil0" d="M1084 716l0 0c-5,0 -9,-4 -9,-9l0 -285 -148 0c-5,0 -9,-4 -9,-9 0,-5 4,-9 9,-9l157 0c3,0 5,1 7,3 2,1 2,4 2,6l0 294c0,5 -4,9 -9,9z"/>
   <path class="fil0" d="M217 512l0 0c-5,0 -10,-4 -10,-10l0 -87c0,-6 5,-10 10,-10l0 0c5,0 9,4 9,10l0 87c0,6 -4,10 -9,10z"/>
   <path class="fil0" d="M198 726c-2,0 -5,0 -6,-2l-105 -106c-1,-1 -2,-4 -2,-6l0 -198c0,-5 5,-9 10,-9 0,0 0,0 0,0 5,0 9,4 9,9l-1 194 102 103c3,3 3,9 0,13 -2,2 -5,2 -7,2z"/>
   <path class="fil0" d="M534 724c-2,0 -4,-1 -6,-3l-135 -130 -220 1c0,0 0,0 0,0 -2,0 -5,-1 -7,-4l-29 -34c-1,-2 -2,-4 -2,-6l0 -48c0,-2 1,-5 3,-6l23 -24 0 -55c0,-5 4,-9 10,-9 0,0 0,0 0,0 5,0 9,4 9,9l0 59c0,2 -1,5 -3,7l-23 23 0 41 24 28 219 0c2,0 5,1 6,2l138 133c4,4 4,9 0,13 -2,2 -4,3 -7,3z"/>
   <path class="fil0" d="M548 719c-6,0 -10,-5 -10,-10l0 -66c0,-2 1,-5 3,-7l119 -121 -1 -66c0,-5 5,-9 10,-9 0,0 0,0 0,0 5,0 9,4 9,9l0 70c0,2 -1,5 -2,7l-119 121 0 62c0,5 -4,10 -9,10z"/>
   <path class="fil0" d="M306 737c-3,0 -5,-1 -7,-3l-77 -77c-4,-3 -4,-9 0,-13 4,-4 9,-4 13,0l77 77c4,4 4,10 0,13 -2,2 -4,3 -6,3z"/>
   <path class="fil0" d="M488 494l0 0 -95 0c-2,0 -5,-1 -7,-3l-24 -29c-1,-2 -2,-4 -2,-6l0 -39c0,-5 4,-10 9,-10l0 0c5,0 9,5 9,10l0 35 20 23 86 0 113 -106c2,-2 4,-3 6,-3l114 0c5,0 9,4 9,10 0,5 -4,9 -9,9l-110 0 -113 106c-2,2 -4,3 -6,3z"/>
   <path class="fil0" d="M758 514c0,0 0,0 0,0 -5,0 -9,-5 -9,-10l0 -87c0,-6 4,-10 9,-10 0,0 0,0 0,0 6,0 10,4 10,10l-1 87c0,5 -4,10 -9,10z"/>
   <path class="fil0" d="M832 736c-3,0 -6,-1 -7,-3 -4,-4 -3,-10 0,-13l87 -79c2,-1 4,-2 6,-2l103 0c3,0 5,1 7,4l47 62c4,4 3,10 -1,13 -4,3 -10,2 -13,-2l-45 -58 -94 0 -84 75c-2,2 -4,3 -6,3z"/>
   <path class="fil0" d="M1082 541c-1,0 -2,0 -3,-1l-171 -63c-3,-2 -6,-5 -6,-9l0 -36c0,-5 4,-9 10,-9 5,0 9,4 9,9l0 30 164 61c5,2 8,7 6,12 -1,3 -5,6 -9,6z"/>
   <path class="fil0" d="M578 295c-2,0 -5,-1 -6,-3l-14 -15 -111 0c-5,0 -10,-4 -10,-9 1,-6 5,-10 10,-10 0,0 0,0 0,0l115 1c3,0 5,1 7,3l13 14 49 0c0,0 0,0 0,0 5,0 9,4 9,9 1,5 -4,9 -9,9l-53 1c0,0 0,0 0,0z"/>
   <path class="fil0" d="M639 262c-5,0 -9,-4 -9,-9l0 -22c0,-3 1,-5 3,-7l14 -14c2,-2 5,-3 7,-3l63 0c5,0 9,4 9,10 0,5 -4,9 -9,9l-59 0 -9 9 0 18c0,5 -4,9 -10,9z"/>
   <path class="fil0" d="M391 223c-3,0 -5,-1 -7,-3 -3,-3 -3,-9 0,-13l113 -108c2,-2 4,-3 7,-3l124 0 0 -53c0,-5 5,-9 10,-9 5,0 9,4 9,9l0 62c0,5 -4,9 -9,9l-131 0 -110 107c-1,1 -4,2 -6,2z"/>
   <path class="fil0" d="M483 977c-5,0 -9,-4 -9,-9 0,-5 4,-9 9,-9l76 0c0,0 0,0 0,0 5,0 9,4 9,9 0,5 -4,9 -9,9l-76 0c0,0 0,0 0,0z"/>
   <path class="fil0" d="M483 1110c-5,0 -9,-4 -9,-9l0 -97c0,-5 4,-9 9,-9 5,0 10,4 10,9l0 97c0,5 -5,9 -10,9z"/>
   <path class="fil0" d="M658 977c0,0 0,0 0,0l-65 -1c-5,0 -9,-4 -9,-9 0,-5 4,-9 9,-9 0,0 0,0 0,0l60 0 14 -26 -1 -185c0,-5 4,-10 10,-10 0,0 0,0 0,0 5,0 9,5 9,10l0 188c0,1 0,3 -1,4l-18 33c-1,3 -5,5 -8,5z"/>
   <path class="fil0" d="M431 803c-2,0 -4,0 -6,-2 -4,-4 -4,-10 0,-13l36 -38c2,-2 5,-3 7,-3l34 0c3,0 5,1 7,3l25 26 40 0 25 -25 0 -57c0,-3 1,-5 3,-7l58 -55c1,-2 4,-3 6,-3l74 0c5,0 9,4 9,10 0,5 -4,9 -9,9 0,0 0,0 0,0l-70 -1 -52 50 0 57c0,3 -1,5 -3,7l-30 31c-2,1 -4,2 -7,2l-48 1c0,0 0,0 0,0 -3,0 -5,-2 -7,-3l-25 -27 -26 0 -34 36c-2,1 -4,2 -7,2z"/>
   <path class="fil0" d="M589 850c-5,0 -9,-4 -9,-10 0,-5 4,-9 9,-9l43 0c6,0 9,4 9,9 0,5 -4,9 -9,9l-43 1c0,0 0,0 0,0z"/>
   <path class="fil0" d="M496 925c-3,0 -6,-1 -7,-3 -4,-4 -3,-10 0,-13l69 -62c4,-4 10,-3 13,0 4,4 3,10 -1,13l-68 62c-2,2 -4,3 -6,3z"/>
   <path class="fil0" d="M769 736c-3,0 -5,-1 -7,-3 -4,-3 -4,-9 0,-13l133 -130c2,-2 4,-3 6,-3l130 0c3,0 5,1 7,4l52 68c3,4 2,10 -2,13 -4,3 -10,2 -13,-2l-49 -64 -121 0 -130 127c-2,2 -4,3 -6,3z"/>
   <path class="fil0" d="M546 722c-3,0 -6,2 -6,6 0,3 3,6 6,6 4,0 6,-3 6,-6 0,-4 -2,-6 -6,-6zm0 30c-13,0 -24,-11 -24,-24 0,-14 11,-25 24,-25 14,0 25,11 25,25 0,13 -11,24 -25,24z"/>
   <path class="fil0" d="M668 425c-3,0 -6,3 -6,6 0,4 3,6 6,6 4,0 7,-2 7,-6 0,-3 -3,-6 -7,-6zm0 31c-13,0 -24,-11 -24,-25 0,-13 11,-24 24,-24 14,0 25,11 25,24 0,14 -11,25 -25,25z"/>
   <path class="fil0" d="M676 725c-4,0 -6,2 -6,6 0,3 3,6 6,6 3,0 6,-3 6,-6 0,-3 -3,-6 -6,-6zm0 30c-14,0 -25,-11 -25,-24 0,-14 11,-25 25,-25 14,0 25,11 25,25 0,13 -11,24 -25,24z"/>
   <path class="fil0" d="M574 834c-4,0 -7,3 -7,6 0,4 3,6 7,6 3,0 6,-2 6,-6 0,-3 -3,-6 -6,-6zm0 31c-14,0 -25,-11 -25,-25 0,-13 11,-24 25,-24 13,0 24,11 24,24 0,14 -11,25 -24,25z"/>
   <path class="fil0" d="M25 413c-4,0 -6,2 -6,6 0,3 2,6 6,6 3,0 6,-3 6,-6 0,-4 -3,-6 -6,-6zm0 30c-14,0 -25,-11 -25,-24 0,-14 11,-25 25,-25 13,0 24,11 24,25 0,13 -11,24 -24,24z"/>
   <path class="fil0" d="M198 726c-3,0 -6,3 -6,7 0,3 3,6 6,6 3,0 6,-3 6,-6 0,-4 -2,-7 -6,-7zm0 31c-14,0 -25,-11 -25,-24 0,-14 11,-25 25,-25 14,0 25,11 25,25 0,13 -11,24 -25,24z"/>
   <path class="fil0" d="M398 1094c-4,0 -7,3 -7,6 0,3 3,6 7,6 3,0 6,-3 6,-6 0,-3 -3,-6 -6,-6zm0 31c-14,0 -25,-11 -25,-25 0,-14 11,-25 25,-25 13,0 24,11 24,25 0,14 -11,25 -24,25z"/>
   <path class="fil0" d="M716 1093c-3,0 -6,3 -6,6 0,3 3,6 6,6 4,0 6,-3 6,-6 0,-3 -2,-6 -6,-6zm0 31c-13,0 -25,-12 -25,-25 0,-14 12,-25 25,-25 14,0 25,11 25,25 0,13 -11,25 -25,25z"/>
   <path class="fil0" d="M1080 717c-4,0 -7,3 -7,6 0,3 3,6 7,6 3,0 6,-3 6,-6 0,-3 -3,-6 -6,-6zm0 31c-14,0 -25,-11 -25,-25 0,-13 11,-25 25,-25 13,0 24,12 24,25 0,14 -11,25 -24,25z"/>
   <path class="fil0" d="M912 411c-4,0 -7,3 -7,6 0,3 3,6 7,6 3,0 6,-3 6,-6 0,-3 -3,-6 -6,-6zm0 31c-14,0 -25,-11 -25,-25 0,-14 11,-25 25,-25 13,0 24,11 24,25 0,14 -11,25 -24,25z"/>
   <path class="fil0" d="M719 128c-3,0 -6,2 -6,6 0,3 3,6 6,6 4,0 7,-3 7,-6 0,-4 -3,-6 -7,-6zm0 30c-13,0 -24,-11 -24,-24 0,-14 11,-25 24,-25 14,0 25,11 25,25 0,13 -11,24 -25,24z"/>
   <path class="fil0" d="M397 41c-3,0 -6,3 -6,6 0,3 3,6 6,6 3,0 6,-3 6,-6 0,-3 -3,-6 -6,-6zm0 31c-14,0 -25,-11 -25,-25 0,-13 11,-25 25,-25 14,0 25,12 25,25 0,14 -11,25 -25,25z"/>
   <path class="fil0" d="M217 635c-4,0 -6,3 -6,6 0,4 2,6 6,6 3,0 6,-2 6,-6 0,-3 -3,-6 -6,-6zm0 31c-14,0 -25,-11 -25,-25 0,-13 11,-24 25,-24 13,0 24,11 24,24 0,14 -11,25 -24,25z"/>
   <path class="fil0" d="M217 512c-4,0 -6,2 -6,6 0,3 2,6 6,6 3,0 6,-3 6,-6 0,-4 -3,-6 -6,-6zm0 30c-14,0 -25,-11 -25,-24 0,-14 11,-25 25,-25 13,0 24,11 24,25 0,13 -11,24 -24,24z"/>
   <path class="fil0" d="M577 962c-3,0 -6,3 -6,6 0,4 3,7 6,7 4,0 6,-3 6,-7 0,-3 -2,-6 -6,-6zm0 31c-13,0 -25,-11 -25,-25 0,-13 12,-24 25,-24 14,0 25,11 25,24 0,14 -11,25 -25,25z"/>
   <path class="fil0" d="M757 633c-3,0 -6,2 -6,6 0,3 3,6 6,6 4,0 7,-3 7,-6 0,-4 -3,-6 -7,-6zm0 30c-13,0 -24,-11 -24,-24 0,-14 11,-25 24,-25 14,0 25,11 25,25 0,13 -11,24 -25,24z"/>
   <path class="fil0" d="M431 262c-3,0 -6,2 -6,6 0,3 3,6 6,6 4,0 6,-3 6,-6 0,-4 -2,-6 -6,-6zm0 30c-13,0 -24,-11 -24,-24 0,-14 11,-25 24,-25 14,0 25,11 25,25 0,13 -11,24 -25,24z"/>
   <path class="fil0" d="M759 515c-4,0 -7,3 -7,6 0,4 3,6 7,6 3,0 6,-2 6,-6 0,-3 -3,-6 -6,-6zm0 31c-14,0 -25,-11 -25,-25 0,-13 11,-24 25,-24 13,0 24,11 24,24 0,14 -11,25 -24,25z"/>
   <path class="fil0" d="M650 861c0,9 -7,16 -15,16l0 0c-9,0 -15,-7 -15,-16l0 -44c0,-9 6,-16 15,-16l0 0c8,0 15,7 15,16l0 44z"/>
   <path class="fil0" d="M654 305c0,9 -7,16 -15,16l0 0c-8,0 -15,-7 -15,-16l0 -44c0,-9 7,-16 15,-16l0 0c8,0 15,7 15,16l0 44z"/>
   <path class="fil0" d="M705 304c0,9 -7,16 -15,16l0 0c-9,0 -16,-7 -16,-16l0 -44c0,-9 7,-16 16,-16l0 0c8,0 15,7 15,16l0 44z"/>
   <path class="fil0" d="M391 877l90 0c18,0 32,14 32,31l0 0c0,16 -14,30 -32,30l-90 0 0 -61z"/>
   <path class="fil0" d="M426 826c-9,0 -9,-14 0,-14 10,0 10,14 0,14zm0 -44c-8,0 -14,7 -14,16l0 43c0,8 6,15 14,15 9,0 15,-7 15,-15l0 -43c0,-9 -6,-16 -15,-16z"/>
   <path class="fil0" d="M483 826c-9,0 -9,-14 0,-14 10,0 10,14 0,14zm0 -44c-8,0 -14,7 -14,15l0 43c0,9 6,16 14,16 9,0 15,-7 15,-16l0 -43c0,-8 -6,-15 -15,-15z"/>
   <path class="fil0" d="M483 995c-9,0 -9,-15 0,-15 10,0 10,15 0,15zm0 -45c-8,0 -14,7 -14,16l0 43c0,9 6,16 14,16 9,0 15,-7 15,-16l0 -43c0,-9 -6,-16 -15,-16z"/>
   <path class="fil0" d="M425 995c-9,0 -9,-15 0,-15 10,0 10,15 0,15zm0 -45c-8,0 -14,7 -14,16l0 43c0,9 6,16 14,16 8,0 15,-7 15,-16l0 -43c0,-9 -7,-16 -15,-16z"/>
   <path class="fil0" d="M1408 348l0 -342 -51 0 0 141 -138 0 0 -141 -51 0 0 342 51 0 0 -154 138 0 0 154 51 0zm258 0l55 0 -108 -346 -52 0 -109 346 56 0 24 -84 110 0 24 84zm-35 -126l-88 0 44 -151 44 151zm121 -45c0,112 39,176 141,176 40,0 63,-7 80,-14l0 -49c-26,10 -46,15 -77,15 -66,0 -92,-44 -92,-128 0,-85 26,-129 92,-129 31,0 51,5 77,16l0 -49c-17,-7 -40,-15 -80,-15 -102,0 -141,65 -141,177zm460 171l65 0 -138 -191 126 -151 -63 0 -123 158 1 -158 -52 0 0 342 52 0 -1 -118 28 -33 105 151zm164 0l0 -342 -51 0 0 342 51 0zm312 0l0 -342 -51 0 1 243 -148 -243 -47 0 0 342 51 0 -2 -243 149 243 47 0zm195 5c48,0 89,-11 107,-21l0 -173 -112 0 0 46 61 0 0 94c-10,4 -28,6 -49,6 -69,0 -94,-44 -94,-128 0,-81 24,-129 94,-129 33,0 60,7 92,20l0 -50c-20,-10 -51,-18 -98,-18 -103,0 -141,69 -141,177 0,107 38,176 140,176l0 0zm-1423 85l-2 301 31 0 0 -342 -42 0 -116 252 -115 -252 -42 0 0 342 31 0 -2 -301 116 249 25 0 116 -249zm260 109l-151 0 0 -121 167 0 0 -29 -198 0 0 342 198 0 0 -28 -167 0 0 -136 151 0 0 -28zm152 192c111,0 144,-74 144,-171 0,-97 -33,-171 -144,-171l-94 0 0 342 94 0zm-63 -313l64 0c82,0 110,60 110,142 0,82 -28,143 -110,143l-64 0 0 -285zm290 313l0 -342 -32 0 0 342 32 0zm51 -171c0,97 33,176 135,176 42,0 70,-8 89,-16l0 -31c-32,13 -55,18 -89,18 -75,0 -102,-64 -102,-147 0,-82 27,-147 102,-147 34,0 57,5 89,18l0 -30c-19,-9 -47,-16 -89,-16 -102,0 -135,78 -135,175zm307 171l0 -342 -32 0 0 342 32 0zm296 0l0 -342 -32 0 1 279 -183 -279 -24 0 0 342 31 0 -1 -278 184 278 24 0zm231 -192l-151 0 0 -121 167 0 0 -29 -198 0 0 342 198 0 0 -28 -167 0 0 -136 151 0 0 -28zm-1788 584l0 -342 -14 0 0 342 14 0zm289 0l0 -342 -15 0 1 310 -207 -310 -9 0 0 342 15 0 -1 -311 207 311 9 0zm154 -345c-90,0 -111,46 -111,89 0,64 31,76 104,84 76,9 92,19 92,77 0,48 -26,84 -109,84 -43,0 -71,-8 -92,-16l0 13c22,9 62,16 92,16 101,0 123,-52 123,-97 0,-72 -34,-82 -102,-89 -71,-8 -94,-16 -94,-72 0,-41 19,-75 97,-75 34,0 56,3 84,14l0 -14c-18,-8 -44,-14 -84,-14zm320 15l0 -12 -214 0 0 12 100 0 0 330 14 0 0 -330 100 0zm54 330l0 -342 -14 0 0 342 14 0zm254 -330l0 -12 -213 0 0 12 99 0 0 330 15 0 0 -330 99 0zm145 319c-66,0 -103,-22 -103,-101l0 -230 -14 0 0 231c0,94 54,113 117,113 64,0 117,-19 117,-113l0 -231 -14 0 0 230c0,79 -36,101 -103,101zm359 -319l0 -12 -214 0 0 12 100 0 0 330 14 0 0 -330 100 0zm203 146l-159 0 0 -145 176 0 0 -13 -190 0 0 342 190 0 0 -14 -176 0 0 -157 159 0 0 -13z"/>
  </g>
 </g>
</svg>
