<?xml version="1.0" encoding="UTF-8"?>
<!DOCTYPE svg PUBLIC "-//W3C//DTD SVG 1.0//EN" "http://www.w3.org/TR/2001/REC-SVG-20010904/DTD/svg10.dtd">
<!-- Creator: CorelDRAW X7 -->
<svg xmlns="http://www.w3.org/2000/svg" xml:space="preserve" width="3in" height="0.869in" version="1.0" style="shape-rendering:geometricPrecision; text-rendering:geometricPrecision; image-rendering:optimizeQuality; fill-rule:evenodd; clip-rule:evenodd"
viewBox="0 0 3000 869"
 xmlns:xlink="http://www.w3.org/1999/xlink">
 <defs>
  <style type="text/css">
   <![CDATA[
    .fil0 {fill:#110575}
   ]]>
  </style>
 </defs>
 <g id="Layer_x0020_1">
  <metadata id="CorelCorpID_0Corel-Layer"/>
  <path class="fil0" d="M1364 0l-9 0c-1,0 -1,0 -1,0l-33 9c-45,13 -106,49 -127,90 -13,24 -19,32 -26,61 -25,110 38,190 82,254 49,71 110,149 111,237 0,36 -25,63 -52,79 -35,21 -48,28 -90,41 -23,6 -45,12 -71,16 -5,-8 -10,-24 -13,-34 -13,-33 -37,-110 -46,-145 -3,-12 -7,-25 -11,-38l-19 -78c12,-8 31,-28 40,-40 46,-65 56,-191 3,-256 -11,-13 -28,-26 -48,-34 -34,-14 -71,-12 -109,-10 -14,1 -29,-1 -43,-1l1 90c0,29 2,56 2,87 0,60 1,117 1,176 0,60 -1,117 -1,176 0,29 1,61 -2,88 -1,12 0,30 0,43 0,12 -2,35 -1,45 12,-1 23,-3 36,-3 9,0 28,3 35,2 1,-20 1,-63 -1,-82 -2,-18 -1,-97 -1,-125 0,-13 -2,-26 -1,-41l3 -83c8,-3 18,-4 27,-6 15,55 27,113 45,174 10,35 26,90 39,124 6,14 9,27 15,40 14,-1 28,-4 43,-3 15,0 27,4 41,1 65,-17 143,-45 190,-90 65,-60 72,-120 43,-204 -5,-16 -21,-50 -29,-64 -19,-32 -34,-54 -55,-84 -33,-49 -65,-91 -88,-146 -13,-32 -16,-82 1,-117 18,-34 37,-53 71,-70 30,-16 68,-19 73,-21 -1,-7 -10,-19 -13,-28 -5,-10 -8,-20 -12,-30zm-391 454c13,-3 27,-4 43,-13 24,-15 39,-37 48,-65 12,-42 15,-105 -12,-140 -9,-12 -40,-23 -56,-23l-23 0 0 241zm2027 245l0 -51c-5,-9 -7,-40 -25,-71 -18,-31 -32,-57 -55,-87 -11,-13 -22,-27 -31,-41 -3,-6 -5,-8 -10,-15 -20,-29 -42,-57 -50,-94 -15,-69 36,-123 98,-138 13,-4 28,-5 40,-9 -3,-8 -9,-17 -14,-27 -5,-10 -8,-20 -13,-30 -9,3 -19,4 -28,6 -28,8 -55,19 -78,34 -30,19 -55,44 -67,80 -25,75 -3,137 42,196 6,8 9,14 15,22 13,19 35,42 47,62 21,38 50,64 59,125 12,72 -58,91 -110,107 -15,4 -46,13 -61,14l-42 -391c-2,-26 -6,-53 -7,-79 -2,-40 -8,-82 -10,-122 -1,-13 -2,-26 -4,-39 -11,0 -22,1 -30,1 -9,0 -19,-2 -31,-1 -7,39 -10,73 -16,112 -6,39 -12,74 -18,111l-31 196c0,4 -1,10 -2,14 -1,4 -1,9 -4,12 -4,-17 -6,-36 -9,-54 -3,-20 -6,-37 -8,-56 -3,-18 -6,-36 -9,-54 -3,-18 -6,-38 -9,-56 -6,-37 -11,-74 -16,-111 -3,-16 -12,-106 -16,-114 -12,0 -18,1 -30,1 -11,0 -21,-1 -33,-1l-6 91c-4,30 -4,59 -8,89l-16 177c-7,60 -13,117 -20,174 -3,31 -6,58 -10,87 -3,18 -12,74 -12,87 12,-1 25,-3 37,-3 11,0 31,3 38,2 3,-42 5,-82 8,-123 1,-19 4,-42 4,-62 1,-20 4,-41 5,-61 0,-51 8,-103 12,-154l5 -60c1,-5 1,-10 1,-15l1 -12c1,-3 1,-2 2,-3 5,7 46,259 53,297 2,10 7,31 7,43 17,-2 40,-3 56,-1 2,-19 34,-177 39,-213l25 -128c1,8 3,20 3,29l8 92c8,81 12,166 20,246 4,42 5,84 9,126l56 -2c12,0 16,2 26,0l67 -20c41,-14 80,-34 112,-62 9,-8 20,-21 27,-32l16 -39c0,0 0,-1 0,-1 1,0 1,-1 1,-1zm-2875 157c48,-6 32,-2 72,0l-3 -124c0,-42 -2,-83 -2,-126l1 -256 131 188c5,9 3,202 3,239 0,25 -4,52 -1,79 12,-1 23,-2 36,-2 10,0 30,2 36,1l-4 -157c0,-55 -2,-107 -2,-162 0,-108 1,-216 5,-321 19,0 79,-6 93,0l2 480c0,32 -5,137 -1,161 41,-7 59,1 70,-1 1,-21 1,-58 0,-80 -1,-25 -1,-52 -1,-79 0,-55 -2,-106 -2,-161l0 -222c0,-9 2,-11 2,-19l1 -60c2,-31 -8,-21 77,-19 1,-12 2,-55 -1,-64 -26,0 -49,1 -77,1 -26,0 -52,0 -79,0 -40,0 -77,-3 -116,0l-38 -1 0 136c0,46 1,93 0,139 -5,-6 -6,-8 -10,-14 -8,-13 -24,-32 -33,-48l-41 -67c-13,-22 -28,-47 -38,-70 -7,-17 -29,-60 -32,-76 -9,0 -17,1 -24,1 -6,0 -15,-1 -24,-1 -3,13 -1,30 1,41l3 310c0,61 -2,118 -2,178 0,31 -1,57 -1,87 0,29 -4,60 -1,89zm1585 13l9 0 3 -1c3,-1 -2,0 2,-1 38,-12 60,-16 97,-44 5,-4 12,-7 17,-12 61,-55 74,-146 38,-220 -5,-12 -13,-27 -20,-38 -23,-39 -47,-69 -73,-106 -23,-33 -85,-110 -52,-166 6,-11 11,-16 19,-24 2,-3 6,-5 9,-6 37,-24 94,-36 140,-38 8,0 52,-1 58,0 8,1 5,3 5,24 0,11 2,17 1,29l0 532c0,20 -2,38 -1,58 11,0 24,-3 35,-3 13,0 25,2 37,3l-1 -160c0,-26 -1,-51 -1,-79 0,-27 0,-55 0,-82 0,-28 -2,-54 -2,-80l2 -161c-1,-25 3,-55 3,-79 16,-5 62,0 76,-1 1,-11 -2,-20 0,-29 1,-11 1,-22 1,-34l-179 1c-28,0 -60,-4 -88,0 -32,4 -47,6 -74,15 -43,14 -82,45 -102,80 -23,42 -24,103 -1,147 27,52 55,87 91,133 7,9 12,18 18,27 29,42 49,78 49,132 0,49 -40,84 -78,103 -25,12 -42,14 -71,19l25 44c3,5 7,11 8,17zm-1036 -14l45 -1c14,0 29,-1 45,-1l91 3c2,-12 -1,-19 -1,-31 0,-11 3,-21 1,-32l-110 0 0 -342c31,-5 95,-1 102,-1 0,-17 -5,-45 0,-62l-102 0 0 -173c33,-5 73,-1 106,0l0 -64c-15,0 -28,0 -44,1 -15,1 -28,-1 -43,-1 -29,0 -62,-2 -90,0l3 484c0,15 -2,29 -2,43 0,30 0,60 0,89 0,29 -3,58 -1,88zm1474 1c8,0 11,-2 20,-2 8,0 17,1 25,0 8,0 11,-1 21,-1l115 2c-1,-19 -2,-40 0,-62l-111 0c0,-57 -1,-113 -1,-171 0,-59 1,-114 1,-172l51 -2c17,0 34,2 49,2 2,-10 1,-22 0,-31 -1,-8 1,-19 1,-31l-101 0c0,-30 -1,-57 -1,-86 0,-14 1,-26 1,-42 0,-15 0,-30 0,-45 22,-3 57,-2 81,-2 10,0 18,2 26,1 0,-12 -2,-19 -2,-32 0,-10 3,-22 1,-31 -15,-1 -30,0 -43,1 -16,2 -28,-1 -43,-1 -30,0 -60,0 -90,0 -4,17 1,67 1,86l0 485c0,41 -6,95 -1,134zm-743 -704l-40 -1c2,13 89,257 98,286 22,64 13,31 15,99 0,7 1,9 1,15l0 221c0,4 -1,5 -1,10l0 73c8,0 0,-1 7,-1 21,0 43,-1 63,2 2,-17 -1,-32 -1,-48l2 -307c0,-26 1,-24 8,-44l58 -172c2,-7 5,-13 7,-19l41 -115 -75 0c-8,19 -11,40 -18,60 -3,10 -5,19 -9,30 -3,10 -6,20 -9,31 -1,4 -33,113 -39,118 -13,-19 -60,-189 -69,-226 -3,-16 1,-13 -30,-13 -2,0 -3,1 -9,1zm-1405 704c10,-1 25,-3 36,-3 10,-1 26,2 36,3l-2 -208c0,-71 0,-141 0,-212 0,-16 1,-32 1,-50l0 -267c0,-34 3,-69 1,-104 -10,-1 -23,1 -35,1 -13,0 -26,-1 -37,-1l0 841z"/>
 </g>
</svg>
