<?xml version="1.0" encoding="UTF-8"?>
<!DOCTYPE svg PUBLIC "-//W3C//DTD SVG 1.0//EN" "http://www.w3.org/TR/2001/REC-SVG-20010904/DTD/svg10.dtd">
<!-- Creator: CorelDRAW X7 -->
<svg xmlns="http://www.w3.org/2000/svg" xml:space="preserve" width="3in" height="1.772in" version="1.0" style="shape-rendering:geometricPrecision; text-rendering:geometricPrecision; image-rendering:optimizeQuality; fill-rule:evenodd; clip-rule:evenodd"
viewBox="0 0 3000 1772"
 xmlns:xlink="http://www.w3.org/1999/xlink">
 <defs>
  <style type="text/css">
   <![CDATA[
    .fil0 {fill:#1C60A7}
    .fil1 {fill:#FEFFFE}
   ]]>
  </style>
 </defs>
 <g id="Layer_x0020_1">
  <metadata id="CorelCorpID_0Corel-Layer"/>
  <g id="_332028664">
   <path class="fil0" d="M648 1578l17 -58c51,-172 99,-351 150,-523 30,-99 59,-200 87,-298 15,-50 30,-99 44,-148 40,-141 108,-268 244,-334 95,-46 228,-46 304,16 29,24 64,83 46,142 -12,41 -59,82 -113,79 -49,-2 -92,-50 -88,-102 2,-26 17,-52 30,-65 5,-5 20,-15 29,-20 14,-6 22,-7 38,-8 -5,-24 -39,-36 -66,-42 -34,-7 -60,-1 -87,13 -51,26 -71,74 -86,126 -17,55 -30,110 -47,165 -8,27 -17,56 -24,83 -6,26 -18,57 -22,82l320 1 -134 473 -190 0c5,-31 20,-75 29,-105l87 -309 -130 0c-5,23 -56,196 -66,233l-132 461c-18,65 -53,173 -66,231 -1,7 0,0 -1,7 19,5 72,17 91,23l58 13c62,13 122,26 185,34 33,3 66,9 98,11 11,0 24,3 34,4 22,2 47,1 67,4l142 5c13,0 19,-2 34,-2l71 -2c12,-1 24,0 36,-1 117,-6 240,-21 355,-46l91 -20c32,-10 66,-16 98,-27 7,-2 7,-3 15,-5 6,-2 9,-2 14,-4 5,-2 7,-3 13,-5 30,-8 108,-37 134,-49 8,-4 16,-6 25,-10l51 -23c9,-4 15,-8 25,-12 34,-14 111,-59 141,-79 15,-10 30,-19 44,-29l121 -97 54 -53c2,-3 2,-3 4,-5 2,-3 2,-2 4,-5l26 -30c22,-27 41,-56 60,-85 10,-16 19,-30 26,-47 9,-23 23,-46 33,-77 3,-10 5,-19 8,-28 2,-6 3,-6 4,-13 2,-7 2,-9 4,-17 25,-98 13,-219 -25,-315 -14,-35 -30,-65 -49,-97l-29 -44c-18,-27 -39,-52 -60,-76l-139 -126 -54 -38c-4,-3 -5,-4 -10,-8l-140 -80c-17,-9 -31,-16 -48,-24l-76 -33c-8,-3 -16,-8 -26,-12l-54 -19c-34,-15 -75,-24 -110,-36 -10,-3 -16,-5 -27,-8l-102 -25c-32,-12 -72,-16 -105,-22 -21,-4 -41,-7 -63,-10l-31 -5c-27,-6 -159,-14 -167,-16l-69 -5c-26,0 -44,-2 -71,-2 -50,0 -94,0 -143,2 -12,0 -18,2 -33,2 -6,0 -12,0 -18,0 -12,0 -9,0 -17,3 -11,3 -116,10 -133,12 -12,1 -21,1 -32,4 -31,7 -95,13 -111,18 -4,1 -2,1 -7,2 0,1 -6,2 -6,2 -21,5 -43,5 -63,12l-28 7c-38,9 -78,18 -115,32l-136 45c-10,4 -17,7 -27,11 -9,3 -17,6 -26,10 -42,17 -83,38 -124,58l-35 19c-5,3 -7,3 -13,7 -16,9 -31,17 -46,27l-107 74c-27,22 -56,42 -81,67 -56,56 -64,65 -111,125l-15 22c-3,4 -5,6 -8,11 -5,8 -9,15 -14,23 -16,24 -37,71 -47,98l-21 71c-10,32 -15,78 -15,112 0,26 1,47 4,69 4,30 3,35 11,63 10,37 21,73 38,107 21,43 25,52 52,95l23 31c4,7 3,5 9,11l31 40c21,27 119,116 153,139l143 96c3,2 7,3 12,6 9,4 13,8 23,12l125 60c30,15 21,-16 24,-27z"/>
   <path class="fil1" d="M821 1678c13,-58 49,-173 67,-238l132 -461c10,-37 61,-210 66,-233l130 0 -87 309c-9,30 -24,74 -29,105l190 0 134 -473 -320 -1c4,-25 16,-56 22,-82 7,-27 16,-56 24,-83 17,-55 30,-110 47,-165 15,-52 35,-100 86,-126 27,-14 53,-20 87,-13 27,6 61,18 66,42 -16,1 -24,2 -38,8 -9,5 -24,15 -29,20 -13,13 -28,39 -30,65 -4,52 39,100 88,102 54,3 101,-38 113,-79 18,-59 -17,-118 -46,-142 -76,-62 -209,-62 -304,-16 -136,66 -204,193 -244,334 -14,49 -29,98 -44,148 -28,98 -57,199 -87,298 -51,172 -99,351 -150,523 -4,15 -29,80 -31,89 21,14 168,65 187,69z"/>
   <path class="fil1" d="M280 513l82 0 -183 647 196 0 61 -218c113,-1 236,-1 317,-56 36,-25 59,-57 80,-105 15,-37 36,-107 35,-153 -1,-58 -25,-103 -57,-129 -38,-32 -79,-43 -142,-45l-372 1c-2,3 -17,54 -17,58z"/>
   <path class="fil1" d="M2341 987l-194 0c-5,10 -10,35 -13,47 -13,42 -36,95 -96,84 -31,-5 -38,-49 -30,-83l20 -71c3,-11 3,-21 10,-22 97,-1 195,-1 292,0 27,0 26,7 34,-37 10,-62 4,-131 -35,-177 -50,-60 -123,-72 -224,-59 -90,12 -148,54 -188,106 -86,111 -131,324 44,390 68,25 189,14 247,-17 31,-17 59,-37 82,-65 15,-20 44,-66 51,-96z"/>
   <path class="fil1" d="M2678 758l18 -71 -259 -1 -17 59 69 1c-4,21 -74,262 -87,308 -9,33 -24,74 -29,106l190 0c8,-42 48,-171 63,-223 14,-48 39,-106 66,-148 7,-11 22,-35 37,-35 -1,36 -5,54 16,79 62,71 176,26 170,-71 -5,-82 -102,-120 -185,-55 -34,25 -33,32 -48,48 -3,3 -1,1 -4,3z"/>
   <path class="fil1" d="M1473 745c46,2 111,1 160,1 -13,31 -14,23 -32,50 -11,17 -23,35 -34,52 -14,21 -202,300 -206,312l403 -1 16 -58c-42,-2 -114,0 -161,0l243 -362c7,-10 31,-43 34,-52l-407 -1 -16 59z"/>
   <path class="fil0" d="M453 882c61,0 108,-4 136,-39 46,-56 89,-188 82,-266 -5,-60 -56,-65 -114,-63l-104 368z"/>
   <path class="fil0" d="M2053 878l121 0c7,-4 7,-12 9,-20 6,-22 16,-41 18,-74 7,-85 -82,-81 -120,1 -7,16 -26,74 -28,93z"/>
  </g>
 </g>
</svg>
